<svg width="78" height="88" viewBox="0 0 78 88" fill="none" xmlns="http://www.w3.org/2000/svg">
<path d="M38.9815 0.913763C39.1139 0.957236 39.2464 1.00071 39.3828 1.0455C41.7698 1.83406 43.7456 3.03358 45.014 5.28214C45.3572 4.66432 45.7005 4.04651 46.0541 3.40998C47.6193 3.99952 48.9292 4.62708 50.2145 5.69817C50.3904 5.8183 50.5663 5.93843 50.7475 6.0622C52.4271 7.61261 53.8104 10.0888 53.9956 12.3979C54.108 16.782 54.108 16.782 53.1267 18.5953C53.0417 18.7548 52.9567 18.9144 52.8691 19.0788C52.2366 20.1695 52.2366 20.1695 51.6543 20.5186C51.0587 21.0622 51.0787 21.6938 50.9945 22.4566C50.3949 26.628 47.9765 30.6445 44.741 33.3125C41.8106 35.4734 38.7998 36.1027 35.2372 35.8607C34.8891 35.7986 34.5419 35.7308 34.1971 35.6527C33.7257 35.5903 33.7257 35.5903 33.261 35.5747C33.0326 35.5594 33.0326 35.5594 32.7995 35.5438C32.0471 35.7165 31.7497 36.0909 31.2848 36.6928C30.7575 39.153 31.5986 41.2183 32.741 43.3494C32.8088 43.4776 32.8766 43.6059 32.9464 43.738C34.9791 47.5393 37.6028 50.9358 40.4376 54.1663C40.5736 54.3226 40.7095 54.479 40.8496 54.64C42.8455 56.7892 45.8461 58.6157 48.7973 58.8987C50.9175 58.8883 52.7656 57.3364 54.2854 55.9759C54.9751 55.2328 55.3966 54.5483 55.6229 53.5423C55.3741 53.4693 55.1252 53.3964 54.8689 53.3212C52.2183 52.421 50.0433 51.285 48.6803 48.7318C47.5674 46.3916 47.5483 43.3371 48.2513 40.8662C49.6873 36.9621 52.133 33.7616 55.9455 31.9791C58.4221 31.0074 60.5949 31.0715 63.1116 31.9084C66.3806 33.3844 68.2838 35.4027 69.5601 38.773C70.5838 41.7801 69.9113 44.7731 68.6232 47.5634C67.5864 49.4771 66.1027 50.9825 64.5677 52.5022C64.928 53.3313 65.4739 54.0159 66.0238 54.7254C66.1177 54.8488 66.2115 54.9723 66.3082 55.0996C66.8057 55.7733 66.8057 55.7733 67.4799 56.2465C67.5074 56.094 67.5348 55.9415 67.5631 55.7844C67.6776 55.2545 67.8271 54.7843 68.0211 54.2793C68.0881 54.102 68.155 53.9247 68.224 53.7421C68.3319 53.4565 68.3319 53.4565 68.442 53.1652C70.0519 48.7925 71.1818 44.4276 71.8483 39.8131C71.8998 39.4685 71.8998 39.4685 71.9524 39.117C72.8436 32.8331 72.5311 26.3822 72.4724 20.0514C72.329 20.0269 72.1856 20.0024 72.0378 19.9771C70.7772 19.7557 69.5426 19.4932 68.3071 19.16C68.1372 19.1148 67.9672 19.0696 67.7921 19.0231C67.2457 18.8773 66.6997 18.7299 66.1538 18.5823C65.8741 18.5071 65.8741 18.5071 65.5887 18.4304C62.2392 17.529 58.9227 16.544 55.6229 15.475C55.6302 15.1021 55.6302 15.1021 55.6376 14.7218C55.6741 12.2632 55.6741 12.2632 55.2069 9.85853C56.974 10.2779 58.7027 10.7783 60.4333 11.3277C62.7412 12.0519 65.0551 12.7523 67.3759 13.4338C67.6005 13.5 67.6005 13.5 67.8296 13.5676C69.2772 13.9943 70.7252 14.4167 72.1831 14.8071C72.3846 14.8617 72.5861 14.9164 72.7937 14.9727C73.1529 15.0693 73.5129 15.1632 73.8736 15.2537C75.1772 15.6052 76.0287 16.1359 76.8017 17.2822C77.501 19.2329 77.2907 21.4718 77.2917 23.5211C77.2924 23.8579 77.2931 24.1948 77.2938 24.5316C77.2951 25.2362 77.2954 25.9408 77.2953 26.6454C77.2953 27.3595 77.2967 28.0735 77.2996 28.7875C77.3292 36.3136 77.3292 36.3136 76.8407 39.8131C76.8126 40.0439 76.7844 40.2746 76.7554 40.5124C75.406 51.2223 70.9808 61.7528 63.5682 69.6905C63.1917 70.0972 62.8304 70.5107 62.4696 70.9313C61.5925 71.9365 60.6592 72.8828 59.716 73.8258C59.4215 74.1208 59.1287 74.4175 58.8358 74.7142C57.5527 75.9999 56.2185 77.174 54.7909 78.2964C54.5677 78.474 54.5677 78.474 54.34 78.6552C43.2532 87.4232 43.2532 87.4232 38.6589 87.3078C29.603 86.1234 18.509 75.7446 13.1979 68.8795C13.0571 68.6921 12.9163 68.5046 12.7713 68.3115C12.5795 68.0678 12.3874 67.8243 12.1951 67.581C7.52586 61.6014 4.43701 54.7666 2.37037 47.5097C2.31751 47.3261 2.26465 47.1424 2.21019 46.9531C1.35285 43.9265 0.892462 40.85 0.49821 37.7329C0.473239 37.5417 0.448268 37.3504 0.42254 37.1533C-0.218604 32.072 -0.00415629 26.8834 0.251189 21.7805C0.258437 21.621 0.265686 21.4615 0.273154 21.2972C0.458795 17.3466 0.458795 17.3466 1.57796 16.2949C2.23214 15.8428 2.79103 15.6389 3.55347 15.4141C3.69479 15.3719 3.8361 15.3297 3.9817 15.2862C4.48378 15.1378 4.98702 14.9941 5.49064 14.851C5.68977 14.794 5.8889 14.7371 6.09407 14.6785C7.69391 14.2223 9.2963 13.7755 10.8991 13.3298C11.385 13.1943 11.8709 13.0587 12.3568 12.9231C13.5349 12.5945 14.7132 12.2663 15.8915 11.9387C15.2585 13.9164 15.2585 13.9164 14.8116 14.7526C14.731 14.9043 14.6505 15.0559 14.5674 15.2121C14.4853 15.3632 14.4031 15.5143 14.3184 15.67C14.2354 15.8268 14.1524 15.9835 14.0669 16.145C13.2475 17.673 13.2475 17.673 12.3375 17.979C12.0651 18.0561 11.7923 18.1317 11.5191 18.2061C11.3744 18.2465 11.2297 18.287 11.0806 18.3287C10.7743 18.4141 10.4677 18.4989 10.161 18.583C9.69363 18.7113 9.22679 18.8414 8.76001 18.9719C8.46196 19.0548 8.16389 19.1375 7.86578 19.2201C7.72685 19.2587 7.58792 19.2973 7.44478 19.337C6.72796 19.5334 6.01363 19.7087 5.28262 19.8434C4.8253 28.052 5.10713 35.9432 6.60716 44.0341C6.74546 44.8449 6.85045 45.6529 6.94676 46.4697C7.08405 46.4697 7.22135 46.4697 7.3628 46.4697C7.3821 46.1028 7.3821 46.1028 7.4018 45.7286C7.95189 41.0345 10.7846 37.2654 14.294 34.3055C14.6657 34.0068 14.6657 34.0068 14.8514 33.5726C14.6198 33.564 14.3881 33.5554 14.1494 33.5466C12.3827 33.3183 11.0323 32.1907 9.94271 30.8448C8.64067 29.093 8.67853 27.3598 8.81892 25.2518C9.00881 24.3365 9.32628 23.8135 10.0963 23.2781C10.4494 23.0721 10.8058 22.8716 11.1648 22.676C14.7049 20.5733 16.3017 16.9281 17.6191 13.2259C19.3919 8.32399 22.1588 3.85909 26.9555 1.49881C30.9032 -0.215376 34.8982 -0.525018 38.9815 0.913763Z" fill="#50B0E5"/>
<path d="M46.2612 11.3145C47.8919 12.2292 48.9919 13.7153 49.5895 15.4748C50.5046 19.992 49.146 24.4824 46.8073 28.3459C44.8749 31.2185 42.3999 33.4217 39.0107 34.2939C37.4213 34.5624 35.7709 34.5283 34.1962 34.1964C32.7171 34.0633 31.6271 34.0691 30.4519 35.0285C29.4186 36.1971 29.5281 37.6771 29.5296 39.1482C29.9661 45.5733 35.9169 52.5975 40.4826 56.7621C41.494 57.6264 42.6051 58.3058 43.765 58.9505C43.9522 59.0546 44.1393 59.1586 44.3322 59.2658C46.7376 60.4721 49.5275 60.8474 52.1638 61.249C53.3134 61.4263 53.3134 61.4263 53.5418 61.6548C53.4773 62.7728 53.2604 63.3368 52.5017 64.151C51.9622 64.5036 51.9622 64.5036 51.3576 64.801C51.1624 64.9002 50.9672 64.9995 50.7661 65.1017C48.8355 65.8566 46.9751 66.1394 44.9091 66.1271C44.6748 66.1261 44.4405 66.1251 44.1991 66.124C42.0039 66.0789 40.0157 65.6803 37.9405 64.983C37.728 64.913 37.728 64.913 37.5113 64.8414C29.8563 62.2419 24.3049 55.8203 20.7659 48.8001C20.259 47.771 20.259 47.771 20.259 47.3015C19.843 47.2927 19.4268 47.293 19.0109 47.3015C18.9422 47.3702 18.8736 47.4388 18.8029 47.5095C18.8841 48.676 19.2202 49.5363 19.7519 50.5518C19.8264 50.6966 19.9008 50.8413 19.9775 50.9904C23.7976 58.3152 29.9381 64.2009 37.9063 66.7214C39.4665 67.185 41.0365 67.4495 42.6469 67.6613C43.833 67.8309 44.8323 68.2002 45.9167 68.7022C48.5572 69.8166 51.9927 69.2732 54.5858 68.276C56.5663 67.4463 58.6468 66.2706 59.9904 64.567C60.1602 63.9097 60.1602 63.9097 60.1984 63.3189C59.7281 63.1304 59.7281 63.1304 59.1583 63.1109C58.6539 63.4948 58.6539 63.4948 58.1962 64.047C56.4224 65.9233 53.8999 67.5671 51.2315 67.7109C51.079 67.7098 50.9265 67.7087 50.7693 67.7076C50.6031 67.7069 50.4368 67.7062 50.2656 67.7056C50.0939 67.7038 49.9223 67.7021 49.7455 67.7003C49.5707 67.6993 49.3958 67.6984 49.2157 67.6974C48.7856 67.695 48.3555 67.6913 47.9254 67.6873C48.5137 67.2951 49.0091 67.1198 49.6823 66.9285C51.5517 66.3965 53.4355 65.8365 54.6079 64.177C55.086 63.2823 55.1598 62.658 54.998 61.6548C54.2837 60.4566 53.3682 60.0496 52.0857 59.5746C52.5901 59.0149 53.1406 58.679 53.7889 58.3005C55.073 57.4989 56.3771 56.4774 56.8701 54.9982C56.9916 54.0711 57.0161 53.3639 56.5191 52.554C55.747 51.9076 54.7289 51.6562 53.797 51.3164C52.1168 50.6391 51.0269 49.5354 50.2136 47.9256C49.0717 45.1276 49.1625 42.8379 50.2136 40.0209C50.8825 38.5503 51.7174 37.5064 53.1258 36.6926C54.5243 36.2264 55.5749 36.3936 56.8831 37.0046C58.9797 38.1463 60.2739 39.6936 60.9777 41.9816C61.1924 42.8629 61.2852 43.6866 61.2385 44.5973C61.5088 44.5801 61.7791 44.563 62.0576 44.5453C63.3463 44.5453 64.4161 44.9657 65.4118 45.7804C65.7991 46.7357 65.7864 47.6558 65.424 48.6203C64.7273 49.9655 63.7335 50.9325 62.5906 51.9039C62.2241 52.2738 62.2241 52.2738 62.3021 52.7774C62.5411 53.4984 62.9005 53.8016 63.4617 54.3091C64.7864 55.5789 66.0877 57.2193 66.2935 59.109C66.307 62.4779 64.8555 64.9709 62.6946 67.4793C62.556 67.6434 62.4174 67.8075 62.2745 67.9765C57.1585 73.8614 50.0655 78.4014 42.9589 81.5205C42.7982 81.5934 42.6376 81.6664 42.472 81.7415C41.1176 82.3178 39.957 82.4439 38.5239 82.0795C32.6154 79.6846 27.2785 75.8705 22.5472 71.6396C22.3861 71.4978 22.3861 71.4978 22.2218 71.3532C16.3109 66.1481 9.63528 57.8742 8.9859 49.7093C8.84131 45.1652 9.57234 41.8244 12.6533 38.2918C12.9657 37.9629 13.282 37.6377 13.6024 37.3167C13.7451 37.1716 13.8877 37.0265 14.0347 36.8771C15.5644 35.4182 17.4181 34.4872 19.2798 33.526C22.5453 31.8385 25.4266 30.0361 26.9156 26.4998C26.9893 26.2235 27.0599 25.9464 27.1236 25.6677C26.9048 25.6098 26.9048 25.6098 26.6815 25.5507C25.714 25.0669 25.0758 24.2788 24.5965 23.3153C24.1459 21.8912 24.1491 20.1586 24.8354 18.8161C25.5021 17.7941 26.4412 16.8561 27.5396 16.3069C28.7756 16.1818 29.8892 16.1516 30.9459 16.8578C31.4738 17.2969 31.9481 17.7796 32.4118 18.2855C33.0998 18.9343 33.9334 18.8608 34.8227 18.8453C38.2587 18.6118 41.5481 17.0952 43.973 14.6427C44.8387 13.5939 45.571 12.4844 46.2612 11.3145Z" fill="#FDFCFC"/>
</svg>
